<svg version="1.1" xmlns="http://www.w3.org/2000/svg" xmlns:xlink="http://www.w3.org/1999/xlink" width="211" height="57.93127" viewBox="0,0,211,57.93127"><g transform="translate(-138.5,-265)"><g data-paper-data="{&quot;isPaintingLayer&quot;:true}" fill-rule="nonzero" stroke-linejoin="miter" stroke-miterlimit="10" stroke-dasharray="" stroke-dashoffset="0" style="mix-blend-mode: normal"><path d="M236.5,284.13147v35.2998" fill="none" stroke="#31ff00" stroke-width="3" stroke-linecap="round"/><path d="M267.5,268.47307v48.53791" fill="none" stroke="#31ff00" stroke-width="3" stroke-linecap="round"/><path d="M256.5,268.18663v50.59246" fill="none" stroke="#31ff00" stroke-width="3" stroke-linecap="round"/><path d="M248.5,268.05556v51.6076" fill="none" stroke="#31ff00" stroke-width="3" stroke-linecap="round"/><path d="M226.5,320.54721l0,-52.49165" fill="none" stroke="#31ff00" stroke-width="3" stroke-linecap="round"/><path d="M212.5,317.89503v-49.83948" fill="none" stroke="#31ff00" stroke-width="3" stroke-linecap="round"/><path d="M203.5,268.05556v50.72354" fill="none" stroke="#31ff00" stroke-width="3" stroke-linecap="round"/><path d="M193.5,268.05556v53.37571" fill="none" stroke="#31ff00" stroke-width="3" stroke-linecap="round"/><path d="M277.5,271.43127v45" fill="none" stroke="#31ff00" stroke-width="3" stroke-linecap="round"/><path d="M287.5,282.43127v35" fill="none" stroke="#31ff00" stroke-width="3" stroke-linecap="round"/><path d="M298.5,317.43127v-32" fill="none" stroke="#31ff00" stroke-width="3" stroke-linecap="round"/><path d="M306.5,312.43127v-26" fill="none" stroke="#31ff00" stroke-width="3" stroke-linecap="round"/><path d="M196.5,275.43127h31.90003" fill="none" stroke="#31ff00" stroke-width="3" stroke-linecap="round"/><path d="M243.21104,275.43127h29.28896" fill="none" stroke="#31ff00" stroke-width="3" stroke-linecap="round"/><path d="M197.5,287.43127h87" fill="none" stroke="#31ff00" stroke-width="3" stroke-linecap="round"/><path d="M203.5,298.43127h105" fill="none" stroke="#31ff00" stroke-width="3" stroke-linecap="round"/><path d="M200.5,304.43127h113" fill="none" stroke="#31ff00" stroke-width="3" stroke-linecap="round"/><path d="M138.5,275v-10h211v10z" fill="#ff1616" stroke="none" stroke-width="NaN" stroke-linecap="butt"/></g></g></svg>