<svg version="1.1" xmlns="http://www.w3.org/2000/svg" xmlns:xlink="http://www.w3.org/1999/xlink" width="207.09194" height="260.73516" viewBox="0,0,207.09194,260.73516"><g transform="translate(-120.50062,-16.1064)"><g data-paper-data="{&quot;isPaintingLayer&quot;:true}" fill-rule="nonzero" stroke-linejoin="miter" stroke-miterlimit="10" stroke-dasharray="" stroke-dashoffset="0" style="mix-blend-mode: normal"><path d="M282.32859,81.63826c0,0 -12.25779,12.39545 -11.48507,12.19385c0.27431,-0.07156 -11.65794,23.26452 -11.65794,23.26452c0,0 -10.31938,4.40041 -10.43056,4.84922c-0.03142,0.12682 -14.36345,-7.40814 -14.33214,-7.67671c0.01135,-0.09744 -0.19686,-14.92479 -0.19686,-14.92479c0,0 11.01066,-21.29046 11.02296,-21.30931c0.03015,-0.04619 12.12004,-14.14905 12.12004,-14.14905c0,0 14.22629,-9.83752 14.29728,-10.11725c0.05431,-0.21409 13.03418,5.79881 13.71818,5.35501c0.26913,-0.17463 -3.05589,22.51454 -3.05589,22.51454z" fill="#003cff" stroke="#000000" stroke-width="2" stroke-linecap="butt"/><g stroke="#000000" stroke-width="2"><path d="M257.64133,105.4549l17.078,11.15016l3.66433,4.80482l11.27541,6.4354l8.69464,14.10481l-9.14617,9.7345l-18.84857,0.71261l-19.15038,-14.1522l-16.23985,-18.82747" fill="#003cff" stroke-linecap="round"/><g><path d="M265.88822,148.79281l15.66426,-23.15786c0,0 21.18083,3.17923 20.92449,3.01845c-0.03238,-0.02032 14.13481,11.42824 14.13481,11.42824l-3.62976,7.50858l-16.3584,-11.05731l29.51759,21.5218c0,0 -6.75734,9.00277 -10.82359,12.66412c-3.64966,3.28622 -15.90003,8.75703 -15.90003,8.75703z" fill="#ffffff" stroke-linecap="butt"/><path d="M319.92384,165.263l-20.13149,-13.96515" fill="none" stroke-linecap="round"/><path d="M308.51406,173.90002l-15.57446,-14.01449" fill="none" stroke-linecap="round"/><path d="M300.7822,146.74781c0,0 -3.60845,6.6437 -5.69216,9.3698c-1.93829,2.53584 -6.40542,6.45737 -6.40542,6.45737" fill="none" stroke-linecap="round"/></g></g><path d="M284.80503,147.36257l-5.45714,22.98891l-7.8325,32.79814c0,0 -9.94228,10.80065 -9.9081,11.41217c0.00966,0.1728 -18.60222,-1.65957 -18.66189,-2.00714c-0.02165,-0.12608 -5.47278,-18.30713 -5.47278,-18.30713l9.48049,-29.56305l3.80914,-26.22399c0,0 12.37897,-19.54143 12.35955,-19.92346c-0.01488,-0.29236 16.55552,0.36654 17.16096,-0.53702c0.23823,-0.35552 4.52228,29.36257 4.52228,29.36257z" data-paper-data="{&quot;index&quot;:null}" fill="#003cff" stroke="#000000" stroke-width="2" stroke-linecap="butt"/><path d="M260.34659,212.20736l-36.70061,6.54746l-38.32505,-10.45602l-19.12865,-8.08424l-6.85626,-11.47125l22.98523,-7.37754l19.98038,1.83892l8.74246,-2.01286l31.42564,1.43552" data-paper-data="{&quot;index&quot;:null}" fill="#003cff" stroke="#000000" stroke-width="2" stroke-linecap="round"/><path d="M258.35229,130.34914l23.05381,5.00543l32.88833,7.19026c0,0 10.44834,10.08051 11.07087,10.02581c0.17591,-0.01546 -2.64982,19.53714 -3.00577,19.61041c-0.1291,0.02657 -18.86823,6.29888 -18.86823,6.29888l-29.51874,-9.0166l-26.42338,-3.1791c0,0 -19.19502,-12.36266 -19.58384,-12.3305c-0.29755,0.02462 1.23105,-17.35323 0.34522,-17.95948c-0.34855,-0.23856 30.04173,-5.64509 30.04173,-5.64509z" data-paper-data="{&quot;index&quot;:null}" fill="#003cff" stroke="#000000" stroke-width="2" stroke-linecap="butt"/><path d="M136.8075,166.46502l43.86718,10.5947l-7.86735,32.57464l-12.1612,-2.93715c0,0 2.87736,4.5118 -5.0241,21.28451c-10.97422,23.29533 -34.01,3.30315 -34.01,3.30315z" fill="#ffffff" stroke="#000000" stroke-width="2" stroke-linecap="butt"/><g><path d="M197.00469,65.52521c-5.70888,-20.35719 5.90204,-41.4139 25.93369,-47.03148c20.03165,-5.61758 40.89848,6.33122 46.60736,26.68841c5.70888,20.35719 -5.90203,41.4139 -25.93369,47.03149c-20.03165,5.61758 -40.89848,-6.33122 -46.60736,-26.68841z" fill="#003cff" stroke="#000000" stroke-width="2" stroke-linecap="butt"/><path d="M221.32309,152.2418l-23.53358,-83.91801l72.51903,-20.3369l23.53358,83.91801z" fill="#003cff" stroke="#000000" stroke-width="2" stroke-linecap="butt"/><path d="M237.47017,80.36818l-2.21555,-7.90039l38.81068,-10.88389l2.21555,7.90039z" fill="#ffd200" stroke="#000000" stroke-width="2" stroke-linecap="butt"/><path d="M234.18247,72.44298l-1.38472,-4.93774l39.74885,-11.14699l1.38472,4.93774z" fill="#000000" stroke="none" stroke-width="0" stroke-linecap="butt"/><path d="M237.7135,85.03423l-1.10777,-3.95019l39.74885,-11.14699l1.10777,3.95019z" fill="#000000" stroke="none" stroke-width="0" stroke-linecap="butt"/><path d="M241.69106,78.32641l-2.14631,-7.6535" fill="none" stroke="#000000" stroke-width="2" stroke-linecap="round"/><path d="M245.95738,77.39628l-2.14631,-7.6535" fill="none" stroke="#000000" stroke-width="2" stroke-linecap="round"/><path d="M250.71747,76.32769l-2.14631,-7.6535" fill="none" stroke="#000000" stroke-width="2" stroke-linecap="round"/><path d="M254.91456,75.15068l-2.14631,-7.6535" fill="none" stroke="#000000" stroke-width="2" stroke-linecap="round"/><path d="M257.03457,66.56704l2.14631,7.6535" fill="none" stroke="#000000" stroke-width="2" stroke-linecap="round"/><path d="M263.94096,73.15195l-2.14631,-7.6535" fill="none" stroke="#000000" stroke-width="2" stroke-linecap="round"/><path d="M268.35487,70.84892l-2.14631,-7.6535" fill="none" stroke="#000000" stroke-width="2" stroke-linecap="round"/><path d="M272.6212,69.9188l-2.14631,-7.6535" fill="none" stroke="#000000" stroke-width="2" stroke-linecap="round"/><g stroke-linecap="butt"><path d="M262.02243,33.54916c2.20251,7.85388 -2.73255,16.10538 -11.02277,18.43025c-8.2902,2.32487 -16.79624,-2.15727 -18.99875,-10.01116c-2.20251,-7.85388 2.73255,-16.10538 11.02277,-18.43025c8.2902,-2.32487 16.79624,2.15727 18.99875,10.01116z" fill="#ffffff" stroke="#000000" stroke-width="2"/><path d="M257.98424,37.33803c0.38238,1.36352 0.65161,2.33393 -0.22106,2.57865c-0.87265,0.24472 -1.55673,0.00442 -1.93911,-1.3591c-0.38238,-1.36352 -0.65159,-2.66727 0.22106,-2.91199c0.87265,-0.24472 1.55673,0.32891 1.93911,1.69243z" fill="#ffffff" stroke="#000000" stroke-width="2"/><path d="M235.63635,34.8001c-0.96526,0.25824 -2.08382,-0.04673 -3.06105,-0.2349c0,0 -0.25179,-0.04848 -0.2033,-0.30028c0.04848,-0.25179 0.30028,-0.2033 0.30028,-0.2033c0.15676,0.03019 0.32077,0.06562 0.48934,0.10196c-0.01108,-0.04129 -0.01107,-0.09122 0.0084,-0.15107c0.07934,-0.24382 0.32317,-0.16449 0.32317,-0.16449c0.33352,0.1088 0.66159,0.23606 0.98125,0.38059l0.00143,0.00065c0,0 0.11645,0.05277 0.14765,0.166c0.26769,0.01176 0.52813,-0.00335 0.77128,-0.06141c-0.38636,-0.57123 -0.36669,-1.2911 -1.34323,-1.00672c0,0 -0.24689,0.06924 -0.31612,-0.17765c-0.06924,-0.24689 0.17765,-0.31612 0.17765,-0.31612c1.82049,-0.49438 1.6769,1.8617 3.9682,1.23065l0.19625,-0.05504c0,0 0.24689,-0.06924 0.31612,0.17765c0.06924,0.24689 -0.17765,0.31612 -0.17765,0.31612l-0.19877,0.05574c-0.47305,0.12988 -1.53412,0.4523 -2.0025,0.27302c-0.06649,-0.02545 -0.1274,-0.05433 -0.18347,-0.08607z" fill="#ff2222" stroke="none" stroke-width="0.5"/><path d="M237.58583,36.14226c0.22353,0.12562 0.09791,0.34914 0.09791,0.34914l-0.29643,0.37417c-2.29514,0.64364 -2.57271,0.13782 -4.50143,-0.94606c0,0 -0.22353,-0.12562 -0.09791,-0.34914c0.12562,-0.22353 0.34914,-0.09791 0.34914,-0.09791c1.88806,1.06103 1.89211,1.52181 4.11172,0.89935l-0.01218,-0.13163c0,0 0.12562,-0.22353 0.34914,-0.09791z" fill="#ff2222" stroke="none" stroke-width="0.5"/><path d="M235.24298,38.90509c0.06913,0.24692 -0.1778,0.31604 -0.1778,0.31604l-0.41554,0.11634c-0.70571,0.19726 -1.33619,0.33889 -2.0718,0.36022c0,0 -0.2563,0.00729 -0.2636,-0.24901c-0.00729,-0.2563 0.24901,-0.2636 0.24901,-0.2636c0.69455,-0.01937 1.28162,-0.15515 1.94823,-0.34146l0.41545,-0.11631c0,0 0.24692,-0.06913 0.31604,0.1778z" fill="#ff2222" stroke="none" stroke-width="0.5"/><path d="M235.3612,40.32734c-0.11267,0.23032 -0.343,0.11766 -0.343,0.11766l-0.05401,-0.13003c-0.30393,0.1374 -0.60171,0.28932 -0.89133,0.45475c0,0 -0.22272,0.12705 -0.34977,-0.09568c-0.12705,-0.22272 0.09568,-0.34977 0.09568,-0.34977c0.30366,-0.173 0.61563,-0.33216 0.93391,-0.47647l0.49087,0.13653c0,0 0.23032,0.11267 0.11766,0.343z" fill="#ff2222" stroke="none" stroke-width="0.5"/><path d="M238.15884,41.80409c0.17143,0.19069 -0.01927,0.3621 -0.01927,0.3621l-0.01969,0.01769c-1.95486,1.75711 -2.92748,-0.26834 -4.94181,0.75692c0,0 -0.22852,0.11632 -0.34482,-0.11221c-0.11632,-0.22852 0.11221,-0.34482 0.11221,-0.34482c2.06558,-1.05134 3.04188,0.9277 4.8316,-0.68128l0.01969,-0.01769c0,0 0.19069,-0.17143 0.3621,0.01927z" fill="#ff2222" stroke="none" stroke-width="0.5"/><path d="M237.70785,45.42321c0.10016,0.23604 -0.13588,0.3362 -0.13588,0.3362l-0.26642,0.10784c-0.49261,0.32924 -0.92059,0.44025 -1.48672,0.59901c0,0 -0.24689,0.06924 -0.31612,-0.17765c-0.06924,-0.24689 0.17765,-0.31612 0.17765,-0.31612c0.51269,-0.14378 0.89711,-0.22707 1.33767,-0.52989l0.35359,-0.15526c0,0 0.23604,-0.10016 0.3362,0.13588z" fill="#ff2222" stroke="none" stroke-width="0.5"/><path d="M240.96454,48.19036c0.22353,0.12562 0.09791,0.34914 0.09791,0.34914l-0.24579,0.35397c-0.44381,0.23364 -0.82862,0.52952 -1.2646,0.77878c0,0 -0.22272,0.12705 -0.34977,-0.09568c-0.12705,-0.22272 0.09568,-0.34977 0.09568,-0.34977c0.44124,-0.2511 0.83037,-0.54854 1.27899,-0.78669l0.03844,-0.15183c0,0 0.12562,-0.22353 0.34914,-0.09791z" fill="#ff2222" stroke="none" stroke-width="0.5"/><path d="M239.73289,44.72011c-1.34256,0.27974 -2.55378,-0.49076 -3.92517,-0.3863c0,0 -0.0526,0.004 -0.11189,-0.01547c0.03747,0.13601 -0.04199,0.27684 -0.17797,0.31498c-0.13635,0.03824 -0.27788,-0.0413 -0.31612,-0.17765c-0.03824,-0.13635 0.0413,-0.27788 0.17765,-0.31612c0.05502,-0.01543 0.11087,-0.01168 0.16046,0.00723c-0.00345,-0.01514 -0.00591,-0.03149 -0.00726,-0.04915c-0.01947,-0.25568 0.23619,-0.27515 0.23619,-0.27515c0.44168,-0.03364 0.86805,0.02126 1.28745,0.10271c-0.03021,-0.01633 -0.06036,-0.04154 -0.08891,-0.0788c-0.15599,-0.20351 0.04753,-0.3595 0.04753,-0.3595c1.55737,-1.19357 4.60115,-1.11776 5.49239,-2.71009l0.34029,-0.21829c0,0 0.22978,-0.11376 0.34356,0.11603c0.11376,0.22978 -0.11603,0.34356 -0.11603,0.34356l-0.12075,0.00995c-1.01455,1.79868 -3.94423,1.57581 -5.62751,2.86589c0,0 -0.06334,0.04856 -0.14643,0.05613c0.85177,0.17545 1.67797,0.4358 2.54904,0.25724l0.50062,0.09135c0,0 0.00111,0.00021 0.00315,0.00068l0.07663,-0.05117c0,0 0.24689,-0.06924 0.31612,0.17765c0.06924,0.24689 -0.17765,0.31612 -0.17765,0.31612l-0.01496,-0.14302c-0.00018,0.0009 -0.00035,0.00179 -0.00053,0.00267c-0.2093,1.06834 0.05371,2.024 -0.95285,2.81634c-0.78831,0.62053 -1.398,0.00174 -2.2141,0.74485c0,0 -0.18987,0.17234 -0.3622,-0.01752c-0.17234,-0.18987 0.01752,-0.3622 0.01752,-0.3622c0.776,-0.70233 1.65569,-0.24912 2.23197,-0.76034c0.78273,-0.69436 0.62735,-1.39944 0.73744,-2.27027z" fill="#ff2222" stroke="none" stroke-width="0.5"/><path d="M242.96124,45.66541c0.25083,0.05321 0.19764,0.30404 0.19764,0.30404l-0.01248,0.05883c-0.2844,1.33866 -0.62459,2.22119 -2.12712,1.93409c0,0 -0.25179,-0.04848 -0.2033,-0.30028c0.04848,-0.25179 0.30028,-0.2033 0.30028,-0.2033c1.17741,0.22863 1.29765,-0.44664 1.52849,-1.53692l0.01248,-0.05883c0,0 0.05321,-0.25083 0.30404,-0.19764z" fill="#ff2222" stroke="none" stroke-width="0.5"/><path d="M246.89771,50.58724c-0.02507,-0.00177 -0.0475,-0.00582 -0.06758,-0.0117c0.0145,0.05173 0.0114,0.11534 -0.03045,0.18983c-0.12562,0.22353 -0.34914,0.09791 -0.34914,0.09791l-0.37333,-0.29353c-0.30807,-1.14206 -1.21965,-0.67081 -2.10948,-0.64451c0,0 -0.2563,0.00729 -0.2636,-0.24901c-0.00729,-0.2563 0.24901,-0.2636 0.24901,-0.2636c1.16605,-0.03179 2.16739,-0.43156 2.61617,1.01285l0.10453,-0.00732c-0.01726,-0.05627 -0.01384,-0.10478 -0.01384,-0.10478l0.00532,-0.0754c0.07005,-0.86237 -0.44725,-1.73338 -0.88565,-2.48773c-0.05074,0.18734 -0.11472,0.32854 -0.19477,0.40516c-0.39664,0.37956 -1.10383,0.07931 -1.57499,0.29531c-0.20636,0.0946 -0.34555,0.24008 -0.44567,0.41356c0.02658,0.00542 0.05357,0.01067 0.08099,0.01572l0.07979,-0.05048c0,0 0.24689,-0.06924 0.31612,0.17765c0.06924,0.24689 -0.17765,0.31612 -0.17765,0.31612l-0.31522,0.06029c-0.05299,-0.01057 -0.10875,-0.02784 -0.16653,-0.05025c-0.06086,0.22565 -0.10203,0.4627 -0.16152,0.6802c0,0 -0.06765,0.24732 -0.31498,0.17966c-0.24732,-0.06765 -0.17966,-0.31498 -0.17966,-0.31498c0.08448,-0.30881 0.17498,-0.54992 0.27148,-0.73994c-0.39783,-0.2339 -0.81966,-0.54353 -1.09499,-0.54822c-0.19234,-0.00329 -0.68405,0.88905 -0.77539,1.01629c0,0 -0.14953,0.20828 -0.35782,0.05876c-0.20828,-0.14953 -0.05876,-0.35782 -0.05876,-0.35782c1.07066,-1.49134 1.31426,-0.87189 2.52077,-0.5249c0.52092,-0.59678 1.18591,-0.26251 1.98752,-0.98563c0.3172,-0.28614 0.20198,-3.80884 0.15707,-4.26669l-0.10904,-0.40979c0,0 -0.06535,-0.24794 0.18258,-0.31331c0.24794,-0.06535 0.31331,0.18258 0.31331,0.18258l0.11858,0.45373c0.03718,0.52052 0.14882,2.47738 0.00381,3.71921c0.14507,-0.00639 0.22552,0.13464 0.22552,0.13464c0.51824,0.91087 1.13293,1.90754 1.06672,2.97697l-0.00532,0.0754c0,0 -0.01807,0.25577 -0.27385,0.2377z" fill="#ff2222" stroke="none" stroke-width="0.5"/><path d="M248.35999,50.34743c0.032,0.01369 0.06475,0.03648 0.09687,0.07188c0.17234,0.18987 -0.01752,0.3622 -0.01752,0.3622l-0.33582,0.30482c-0.02925,0.02769 -0.06545,0.04886 -0.10692,0.06049c-0.13635,0.03824 -0.27788,-0.0413 -0.31612,-0.17765c-0.02764,-0.09856 0.00627,-0.19982 0.07866,-0.26282l0.19157,-0.17389c-1.44449,-1.18942 0.20637,-4.81048 0.69687,-6.16752c0,0 0.08716,-0.24114 0.32831,-0.15398c0.24114,0.08716 0.15398,0.32831 0.15398,0.32831c-0.62071,1.71728 -1.74472,4.07312 -0.76988,5.80817z" fill="#ff2222" stroke="none" stroke-width="0.5"/><path d="M250.14089,50.24865l-0.4756,-0.04532c0.32814,-2.08674 -0.65758,-3.89972 0.22785,-5.98621c0,0 0.10016,-0.23603 0.3362,-0.13587c0.23603,0.10016 0.13587,0.3362 0.13587,0.3362c-0.80154,1.88881 0.00955,3.59926 -0.14814,5.4859c0.18453,0.16363 0.02377,0.35482 0.02377,0.35482l-0.06423,-0.00612c-0.00152,0.0102 -0.00309,0.0204 -0.00468,0.03062z" fill="#ff2222" stroke="none" stroke-width="0.5"/><path d="M251.47899,49.24793c-0.13503,0.21799 -0.353,0.08295 -0.353,0.08295l-0.50904,-0.3753c0.07454,-0.38626 0.15811,-0.77131 0.26192,-1.15078c0,0 0.06765,-0.24732 0.31498,-0.17966c0.24732,0.06765 0.17966,0.31498 0.17966,0.31498c-0.07685,0.2809 -0.16377,0.5605 -0.2793,0.82784l0.30184,0.12698c0,0 0.21799,0.13503 0.08295,0.353z" fill="#ff2222" stroke="none" stroke-width="0.5"/><path d="M252.24593,48.01089c-0.00943,-0.20641 -0.01659,-0.3911 -0.07257,-0.33789c0.00458,0.16108 0.00917,0.32215 0.01374,0.48322l0.04079,0.03432c-0.00582,-0.02875 -0.01674,-0.10728 0.01803,-0.17965zM252.77968,48.26093l-0.27458,-0.02952l-0.13488,0.10337c0.03233,0.0697 0.06568,0.20365 -0.07913,0.31167c-0.20551,0.15334 -0.35886,-0.0522 -0.35886,-0.0522l-0.25777,-0.42347c-0.00437,-0.15345 -0.00873,-0.30689 -0.01309,-0.46035c-0.01661,-0.06168 -0.00266,-0.11733 0.01818,-0.16034c0.02131,-0.05766 0.06562,-0.1216 0.15764,-0.14573c0.8193,-0.48072 0.71791,0.05579 0.94247,0.85655zM252.25706,48.20474l-0.01407,-0.00152l0.015,0.01262c-0.00031,-0.00367 -0.00061,-0.00739 -0.00091,-0.0111z" fill="#ff2222" stroke="none" stroke-width="0.5"/><path d="M254.19849,47.343c-0.04848,0.25179 -0.30028,0.2033 -0.30028,0.2033l-0.57483,-0.14918c-0.17991,-0.49492 -0.374,-0.93243 -0.63505,-1.38948c0,0 -0.12705,-0.22272 0.09568,-0.34977c0.22272,-0.12705 0.34977,0.09568 0.34977,0.09568c0.23775,0.41728 0.45646,0.78762 0.53541,1.26488l0.326,0.02429c0,0 0.25179,0.04848 0.2033,0.30028z" fill="#ff2222" stroke="none" stroke-width="0.5"/><path d="M255.76219,47.69084c-0.24689,0.06924 -0.31612,-0.17765 -0.31612,-0.17765l-0.05539,-0.19752c-0.32289,-1.15138 -0.70008,-1.30557 -1.72846,-1.88349c0,0 -0.22353,-0.12562 -0.09791,-0.34914c0.12562,-0.22353 0.34914,-0.09791 0.34914,-0.09791c1.12172,0.63037 1.61233,0.91312 1.971,2.19209l0.05539,0.19752c0,0 0.06924,0.24689 -0.17765,0.31612z" fill="#ff2222" stroke="none" stroke-width="0.5"/><path d="M257.53407,44.86252c0.19455,0.16701 0.02753,0.36158 0.02753,0.36158l-0.3662,0.36047c-1.43099,0.4013 -1.84486,0.0687 -2.24056,-1.34232c0,0 -0.06924,-0.24689 0.17765,-0.31612c0.24689,-0.06924 0.31612,0.17765 0.31612,0.17765c0.32738,1.16741 0.43293,1.31663 1.6083,0.98701l0.11555,-0.20073c0,0 0.16701,-0.19455 0.36158,-0.02753z" fill="#ff2222" stroke="none" stroke-width="0.5"/><path d="M258.62135,44.97163c-0.24689,0.06924 -0.31612,-0.17765 -0.31612,-0.17765l0.00163,-0.09441c-0.62912,-0.71182 -0.82444,-1.40456 -1.9565,-1.44821c0,0 -0.25611,-0.01239 -0.24373,-0.26851c0.01239,-0.25611 0.26851,-0.24373 0.26851,-0.24373c1.30882,0.07396 1.55912,0.815 2.31143,1.61576l0.1124,0.3006c0,0 0.06924,0.24689 -0.17765,0.31612z" fill="#ff2222" stroke="none" stroke-width="0.5"/><path d="M260.13516,42.3395c0.25129,0.05105 0.20023,0.30233 0.20023,0.30233l-0.18412,0.42953c-0.76368,0.38249 -1.28512,0.10582 -2.09035,0.13211c0,0 -0.2563,0.00729 -0.2636,-0.24901c-0.00729,-0.2563 0.24901,-0.2636 0.24901,-0.2636c0.69437,-0.01718 1.24236,0.26959 1.86773,-0.07414l-0.08123,-0.07697c0,0 0.05105,-0.25129 0.30233,-0.20023z" fill="#ff2222" stroke="none" stroke-width="0.5"/><path d="M260.70047,41.56877c0.04464,-0.05948 0.15182,-0.16158 0.3206,-0.07633c0.22888,0.11558 0.1133,0.34447 0.1133,0.34447l-0.3813,0.28777c-0.68594,-0.20556 -1.2633,-0.57204 -1.88561,-0.92176c0,0 -0.22353,-0.12562 -0.09791,-0.34914c0.12562,-0.22353 0.34914,-0.09791 0.34914,-0.09791c0.52551,0.29532 1.0192,0.61366 1.58177,0.81294z" fill="#ff2222" stroke="none" stroke-width="0.5"/><path d="M260.1521,39.96194c-0.0057,-0.07612 0.00965,-0.21576 0.18566,-0.26512c0.24689,-0.06924 0.31612,0.17765 0.31612,0.17765l-0.12226,0.51363c-0.13167,0.03693 -0.26334,0.07385 -0.39502,0.11078c0,0 -0.24689,0.06924 -0.31612,-0.17765c-0.06924,-0.24689 0.17765,-0.31612 0.17765,-0.31612c0.05132,-0.01439 0.10266,-0.02879 0.15398,-0.04318z" fill="#ff2222" stroke="none" stroke-width="0.5"/><path d="M261.50539,37.10559c0.2224,0.12761 0.09478,0.35002 0.09478,0.35002l-0.06509,0.11343c-0.27102,0.47189 -0.57683,0.91829 -0.88578,1.36462c0.15306,-0.00784 0.30521,-0.03674 0.44739,-0.08612l-0.18012,0.03331c0,0 -0.00411,-0.25638 0.25227,-0.26049c0.25638,-0.00411 0.26049,0.25227 0.26049,0.25227l-0.17323,0.46232c-0.33681,0.1049 -0.70692,0.13293 -1.05683,0.08072c-0.04429,0.00238 -0.09467,-0.00898 -0.14971,-0.04441c-0.0403,-0.02302 -0.08416,-0.06008 -0.10676,-0.11815c-0.02466,-0.05723 -0.01942,-0.1144 -0.00687,-0.15908c0.0135,-0.06012 0.03904,-0.10216 0.06972,-0.13141c0.37434,-0.54283 0.75648,-1.07638 1.08462,-1.64879l0.06509,-0.11343c0,0 0.12761,-0.2224 0.35002,-0.09478z" fill="#ff2222" stroke="none" stroke-width="0.5"/><path d="M260.85396,36.40969c-0.03824,-0.13635 0.0413,-0.27788 0.17765,-0.31612c0.13635,-0.03824 0.27788,0.0413 0.31612,0.17765c0.03824,0.13635 -0.0413,0.27788 -0.17765,0.31612c-0.13635,0.03824 -0.27788,-0.0413 -0.31612,-0.17765z" fill="#ff2222" stroke="none" stroke-width="0.5"/><path d="M260.60836,34.77422c-0.03824,-0.13635 0.0413,-0.27788 0.17765,-0.31612c0.13635,-0.03824 0.27788,0.0413 0.31612,0.17765c0.03824,0.13635 -0.0413,0.27788 -0.17765,0.31612c-0.13635,0.03824 -0.27788,-0.0413 -0.31612,-0.17765z" fill="#ff2222" stroke="none" stroke-width="0.5"/><path d="M237.28347,33.03183c-0.18987,0.17234 -0.3622,-0.01752 -0.3622,-0.01752l-0.32206,-0.35617c-0.27613,-0.42987 -0.54854,-0.85671 -0.80183,-1.30055c0,0 -0.12705,-0.22272 0.09568,-0.34977c0.00691,-0.00393 0.01372,-0.00755 0.02045,-0.01082c-0.24426,-0.15638 -0.51049,-0.27811 -0.81135,-0.33605c0,0 -0.25179,-0.04848 -0.2033,-0.30028c0.04848,-0.25179 0.30028,-0.2033 0.30028,-0.2033c1.22335,0.23557 2.2512,1.91793 3.18216,2.00877c0.00698,-0.0761 0.04533,-0.17245 0.1853,-0.2117c0.24689,-0.06924 0.31612,0.17765 0.31612,0.17765l-0.134,0.51662c-0.98332,0.21412 -1.58973,-0.62419 -2.35534,-1.28688c0.19764,0.33252 0.40476,0.65749 0.61312,0.98465l0.2945,0.32309c0,0 0.17234,0.18987 -0.01752,0.3622z" fill="#ff2222" stroke="none" stroke-width="0.5"/><path d="M238.4314,30.63949c0.1793,0.18332 -0.00402,0.36259 -0.00402,0.36259l-0.524,0.248c-0.58648,-0.35835 -0.70124,-0.67938 -1.00619,-1.2785c0,0 -0.11632,-0.22852 0.11221,-0.34482c0.22852,-0.11632 0.34482,0.11221 0.34482,0.11221c0.25595,0.50286 0.31084,0.792 0.80878,1.06887l-0.09421,-0.17237c0,0 0.18332,-0.1793 0.36259,0.00402z" fill="#ff2222" stroke="none" stroke-width="0.5"/><path d="M238.42319,30.38318c-0.21232,0.14375 -0.35609,-0.06857 -0.35609,-0.06857c-0.09583,-0.14155 -0.26785,-0.3956 -0.36369,-0.53714c0,0 -0.14375,-0.21232 0.06857,-0.35609c0.21232,-0.14375 0.35609,0.06857 0.35609,0.06857c0.09583,0.14155 0.19168,0.28311 0.28751,0.42465l0.07617,0.11249c0,0 0.14375,0.21232 -0.06857,0.35609z" fill="#ff2222" stroke="none" stroke-width="0.5"/><path d="M236.19039,36.48412c-0.12562,0.22353 -0.34914,0.09791 -0.34914,0.09791c-0.29803,-0.16749 -0.96646,-0.54312 -1.2645,-0.71061c0,0 -0.22353,-0.12562 -0.09791,-0.34914c0.12562,-0.22353 0.34914,-0.09791 0.34914,-0.09791c0.29803,0.16749 0.59609,0.33499 0.89414,0.50248l0.37036,0.20813c0,0 0.22353,0.12562 0.09791,0.34914z" fill="#ff2222" stroke="none" stroke-width="0.5"/><path d="M239.1563,29.33508c-0.23121,0.11086 -0.34207,-0.12033 -0.34207,-0.12033l-0.09011,-0.21634c-0.3504,-0.3704 -0.71734,-0.71657 -1.08791,-1.06667c0,0 -0.18639,-0.17608 -0.01032,-0.36247c0.17608,-0.18639 0.36247,-0.01032 0.36247,-0.01032c0.37752,0.35665 0.7511,0.70972 1.10822,1.08695l0.18006,0.34712c0,0 0.11086,0.23121 -0.12033,0.34207z" fill="#ff2222" stroke="none" stroke-width="0.5"/><path d="M241.17829,30.54222c-0.04848,0.25179 -0.30028,0.2033 -0.30028,0.2033l-0.42361,-0.22592c-0.3231,-1.15214 -0.6462,-2.30428 -0.9693,-3.45643c0,0 -0.06924,-0.24689 0.17765,-0.31612c0.24689,-0.06924 0.31612,0.17765 0.31612,0.17765c0.3231,1.15214 0.6462,2.30428 0.9693,3.45643l0.0268,-0.13919c0,0 0.25179,0.04848 0.2033,0.30028z" fill="#ff2222" stroke="none" stroke-width="0.5"/><path d="M241.26164,27.43832c-0.18417,0.17842 -0.36258,-0.00575 -0.36258,-0.00575l-0.06103,-0.06301c-0.24995,-0.25992 -0.46966,-0.55257 -0.64949,-0.86513c0,0 -0.12705,-0.22272 0.09568,-0.34977c0.22272,-0.12705 0.34977,0.09568 0.34977,0.09568c0.15629,0.2767 0.3503,0.53509 0.57237,0.7624l0.06103,0.06301c0,0 0.17842,0.18417 -0.00575,0.36258z" fill="#ff2222" stroke="none" stroke-width="0.5"/><path d="M242.27101,27.31668c0.05786,-0.0518 0.15614,-0.10056 0.28907,-0.02587c0.22353,0.12562 0.09791,0.34914 0.09791,0.34914l-0.55551,0.29963c-0.40483,-0.45803 -0.47926,-0.84906 -0.64226,-1.43029c0,0 -0.06924,-0.24689 0.17765,-0.31612c0.24689,-0.06924 0.31612,0.17765 0.31612,0.17765c0.10482,0.37377 0.14992,0.66408 0.31702,0.94585z" fill="#ff2222" stroke="none" stroke-width="0.5"/><path d="M243.7275,26.92072c-0.13374,0.21877 -0.35251,0.08503 -0.35251,0.08503l-0.3569,-0.26268c-0.15507,-0.3047 -0.31016,-0.60937 -0.46524,-0.91406c0,0 -0.11632,-0.22852 0.11221,-0.34482c0.22852,-0.11632 0.34482,0.11221 0.34482,0.11221c0.15507,0.3047 0.31016,0.60937 0.46524,0.91406l0.16733,0.05776c0,0 0.21877,0.13374 0.08503,0.35251z" fill="#ff2222" stroke="none" stroke-width="0.5"/><path d="M245.3609,25.3759c0.02302,-0.01516 0.05104,-0.02807 0.08503,-0.03761c0.24689,-0.06924 0.31612,0.17765 0.31612,0.17765l-0.33278,0.48071c-0.31106,-0.21057 -0.58732,-0.28424 -0.90751,-0.34536c0.00918,0.03274 0.01836,0.06548 0.02754,0.09822l0.0277,0.09876c0,0 0.06924,0.24689 -0.17765,0.31612c-0.24689,0.06924 -0.31612,-0.17765 -0.31612,-0.17765c-0.04144,-0.14776 -0.1052,-0.37515 -0.15121,-0.53919c-0.02066,-0.03853 -0.03167,-0.08791 -0.02316,-0.15093c0.00323,-0.04717 0.01812,-0.10333 0.06226,-0.14907c0.04192,-0.04777 0.09665,-0.06728 0.14338,-0.07443c0.06199,-0.01369 0.11203,-0.00686 0.1521,0.01045c0.41679,0.07946 0.74835,0.13547 1.09429,0.29234z" fill="#ff2222" stroke="none" stroke-width="0.5"/><path d="M246.03427,24.58745c-0.03824,-0.13635 0.0413,-0.27788 0.17765,-0.31612c0.13635,-0.03824 0.27788,0.0413 0.31612,0.17765c0.03824,0.13635 -0.0413,0.27788 -0.17765,0.31612c-0.13635,0.03824 -0.27788,-0.0413 -0.31612,-0.17765z" fill="#ff2222" stroke="none" stroke-width="0.5"/><path d="M247.58301,24.79225c-0.03824,-0.13635 0.0413,-0.27788 0.17765,-0.31612c0.13635,-0.03824 0.27788,0.0413 0.31612,0.17765c0.03824,0.13635 -0.0413,0.27788 -0.17765,0.31612c-0.13635,0.03824 -0.27788,-0.0413 -0.31612,-0.17765z" fill="#ff2222" stroke="none" stroke-width="0.5"/><path d="M250.93337,25.34398c-0.03824,-0.13635 0.0413,-0.27788 0.17765,-0.31612c0.13635,-0.03824 0.27788,0.0413 0.31612,0.17765c0.03824,0.13635 -0.0413,0.27788 -0.17765,0.31612c-0.13635,0.03824 -0.27788,-0.0413 -0.31612,-0.17765z" fill="#ff2222" stroke="none" stroke-width="0.5"/><path d="M254.22836,25.69821c-0.03824,-0.13635 0.0413,-0.27788 0.17765,-0.31612c0.13635,-0.03824 0.27788,0.0413 0.31612,0.17765c0.03824,0.13635 -0.0413,0.27788 -0.17765,0.31612c-0.13635,0.03824 -0.27788,-0.0413 -0.31612,-0.17765z" fill="#ff2222" stroke="none" stroke-width="0.5"/><path d="M257.53798,30.13162c-0.20551,0.15334 -0.35886,-0.0522 -0.35886,-0.0522l-0.25777,-0.42347c-0.00486,-0.17087 -0.00972,-0.34175 -0.01458,-0.51261c0,0 -0.00729,-0.2563 0.24901,-0.2636c0.2563,-0.00729 0.2636,0.24901 0.2636,0.24901c0.00486,0.17087 0.00972,0.34175 0.01458,0.51261l0.15619,0.13139c0,0 0.15334,0.20551 -0.0522,0.35886z" fill="#ff2222" stroke="none" stroke-width="0.5"/></g></g><path d="M217.81336,100.75602c0,0 -11.89597,12.74312 -11.12934,12.51935c0.27214,-0.07942 -10.98349,23.59042 -10.98349,23.59042c0,0 -10.18845,4.6956 -10.28667,5.14744c-0.02775,0.12767 -14.57071,-6.99165 -14.54715,-7.26103c0.00855,-0.09769 -0.62635,-14.91294 -0.62635,-14.91294c0,0 10.39332,-21.59857 10.40506,-21.61776c0.02881,-0.04706 11.70776,-14.49204 11.70776,-14.49204c0,0 13.93725,-10.2429 14.00015,-10.5246c0.04814,-0.21555 13.19568,5.42125 13.86662,4.95794c0.26399,-0.1823 -2.4066,22.59317 -2.4066,22.59317z" fill="#003cff" stroke="#000000" stroke-width="2" stroke-linecap="butt"/><path d="M326.59256,160.44825l-16.66723,34.33776l-30.70778,24.68658l-17.53102,10.47044l-12.87887,-1.78543l7.91774,-23.62221l13.23049,-15.20352l3.62169,-8.47236l19.68863,-24.8535" data-paper-data="{&quot;index&quot;:null}" fill="#003cff" stroke="#000000" stroke-width="2" stroke-linecap="round"/><path d="M229.89098,235.22917l27.65933,-35.65863l26.47919,20.53911l-7.66794,9.88557c0,0 5.2951,-0.773 17.34951,13.31419c16.74213,19.56545 -10.9409,32.3711 -10.9409,32.3711z" fill="#ffffff" stroke="#000000" stroke-width="2" stroke-linecap="butt"/><g stroke="#000000" stroke-width="2"><path d="M194.40598,119.71098l16.61276,11.83216l3.46689,4.94919l11.00574,6.88643l8.11669,14.44513l-9.53263,9.35639l-18.86197,-0.05077l-18.56196,-14.91561l-15.4646,-19.46927" fill="#003cff" stroke-linecap="round"/><g><path d="M200.89224,163.34713l16.58862,-22.50496c0,0 21.03482,4.03382 20.78518,3.86278c-0.03156,-0.02161 13.66074,11.99091 13.66074,11.99091l-3.93064,7.35555l-15.89752,-11.71025l28.62242,22.69874c0,0 -7.11616,8.72192 -11.32724,12.21571c-3.77964,3.13583 -16.24139,8.10639 -16.24139,8.10639z" fill="#ffffff" stroke-linecap="butt"/><path d="M234.66723,167.22221l19.54983,14.76843" fill="none" stroke-linecap="round"/><path d="M242.46709,190.15884l-14.99454,-14.6333" fill="none" stroke-linecap="round"/><path d="M235.84042,162.71596c0,0 -3.87436,6.49223 -6.06669,9.13177c-2.03932,2.45532 -6.6615,6.19286 -6.6615,6.19286" fill="none" stroke-linecap="round"/></g></g></g></g></svg>