<svg version="1.1" xmlns="http://www.w3.org/2000/svg" xmlns:xlink="http://www.w3.org/1999/xlink" width="287.75698" height="300.65555" viewBox="0,0,287.75698,300.65555"><g transform="translate(-92.16046,-37.20923)"><g data-paper-data="{&quot;isPaintingLayer&quot;:true}" fill-rule="nonzero" stroke-linejoin="miter" stroke-miterlimit="10" stroke-dasharray="" stroke-dashoffset="0" style="mix-blend-mode: normal"><path d="M231.96553,98.03741c0,0 -17.42718,-0.44063 -16.75101,-0.01572c0.24003,0.15084 -24.93541,7.44119 -24.93541,7.44119c0,0 -10.27436,-4.50453 -10.6775,-4.27812c-0.11392,0.06398 -4.44075,-15.53927 -4.22363,-15.70042c0.07877,-0.05847 10.73921,-10.36617 10.73921,-10.36617c0,0 23.05377,-6.56066 23.07593,-6.5646c0.05431,-0.00967 18.61048,-0.86086 18.61048,-0.86086c0,0 16.91182,3.62692 17.16426,3.48704c0.19318,-0.10707 4.70282,13.46847 5.49467,13.66284c0.31157,0.07647 -18.497,13.19485 -18.497,13.19485z" fill="#003cff" stroke="#000000" stroke-width="2" stroke-linecap="butt"/><g stroke="#000000" stroke-width="2"><path d="M200.26019,96.697l-4.44807,19.90474l-3.21338,5.11741l-2.06938,12.81666l-10.15671,13.09137l-12.32501,-5.1485l-7.28162,-17.39984l6.53196,-22.89881l11.93127,-21.81401" fill="#003cff" stroke-linecap="round"/><g><path d="M162.57232,119.62755l27.18205,6.54155c0,0 4.45572,20.9495 4.51632,20.65305c0.00767,-0.03746 -5.74128,17.24631 -5.74128,17.24631l-8.30483,-0.76401l4.61365,-19.19832l-9.79483,35.19285c0,0 -10.80153,-3.16837 -15.65696,-5.69118c-4.35797,-2.26436 -13.77976,-11.81586 -13.77976,-11.81586z" fill="#ffffff" stroke-linecap="butt"/><path d="M172.1242,152.25464l-6.01251,23.75189" fill="none" stroke-linecap="round"/><path d="M154.02003,168.35325l7.65786,-19.50197" fill="none" stroke-linecap="round"/><path d="M176.73224,151.58485c0,0 -7.48747,-1.04757 -10.77142,-2.04212c-3.05475,-0.92515 -8.29451,-3.73205 -8.29451,-3.73205" fill="none" stroke-linecap="round"/></g></g><path d="M266.93137,175.71134l9.9886,21.41257l14.21396,30.57825c0,0 -1.0926,14.6393 -0.68627,15.09758c0.11482,0.1295 -15.61606,10.24379 -15.87857,10.0083c-0.09522,-0.08543 -15.65317,-10.95814 -15.65317,-10.95814l-10.91397,-29.06439l-13.28859,-22.92641c0,0 -2.42156,-23.00527 -2.67389,-23.29277c-0.19311,-0.22 13.20875,-9.98742 13.1227,-11.07166c-0.03385,-0.42662 21.76919,20.21668 21.76919,20.21668z" data-paper-data="{&quot;index&quot;:null}" fill="#003cff" stroke="#000000" stroke-width="2" stroke-linecap="butt"/><path d="M277.60775,209.48784l26.69464,26.02307l13.81758,37.2453l4.56708,20.25838l-5.33298,12.25387l-19.38258,-14.38974l-10.14022,-17.31396l-6.72736,-5.93506l-17.13308,-26.3835" data-paper-data="{&quot;index&quot;:null}" fill="#003cff" stroke="#000000" stroke-width="2" stroke-linecap="round"/><path d="M243.95637,175.62262l-7.81852,22.25766l-11.203,31.74641c0,0 -11.29546,9.12125 -11.31818,9.74577c-0.00641,0.17647 -19.05936,-5.04602 -19.08804,-5.40829c-0.0104,-0.13139 -3.9167,-19.50245 -3.9167,-19.50245l12.59853,-28.17681l6.42299,-25.82725c0,0 14.64195,-17.51848 14.65813,-17.9083c0.01238,-0.29831 17.0677,3.36801 17.77887,2.56397c0.27984,-0.31637 1.88589,30.50927 1.88589,30.50927z" data-paper-data="{&quot;index&quot;:null}" fill="#003cff" stroke="#000000" stroke-width="2" stroke-linecap="butt"/><g><path d="M212.01018,72.76175c2.09138,-21.03884 20.56939,-36.42588 41.27179,-34.36795c20.7024,2.05793 35.78961,20.78156 33.69824,41.8204c-2.09138,21.03884 -20.56939,36.42589 -41.27179,34.36796c-20.7024,-2.05793 -35.78961,-20.78156 -33.69824,-41.8204z" fill="#003cff" stroke="#000000" stroke-width="2" stroke-linecap="butt"/><path d="M203.10143,162.38198l8.62125,-86.72794l74.94728,7.45018l-8.62125,86.72794z" fill="#003cff" stroke="#000000" stroke-width="2" stroke-linecap="butt"/><path d="M258.8548,102.76071l0.81164,-8.16493l25.55416,2.54023l-0.81164,8.16493z" fill="#ffd200" stroke="#000000" stroke-width="2" stroke-linecap="butt"/><path d="M259.04722,94.2193l0.50727,-5.10308l26.17189,2.60163l-0.50727,5.10308z" fill="#000000" stroke="none" stroke-width="0" stroke-linecap="butt"/><path d="M257.75367,107.23216l0.40582,-4.08246l26.17189,2.60163l-0.40582,4.08246z" fill="#000000" stroke="none" stroke-width="0" stroke-linecap="butt"/><path d="M262.4457,102.80275l0.78628,-7.90978" fill="none" stroke="#000000" stroke-width="2" stroke-linecap="round"/><path d="M267.54424,95.5793l-0.78628,7.90978" fill="none" stroke="#000000" stroke-width="2" stroke-linecap="round"/><path d="M271.58051,104.22614l0.78628,-7.90978" fill="none" stroke="#000000" stroke-width="2" stroke-linecap="round"/><path d="M276.52989,103.68743l0.78628,-7.90978" fill="none" stroke="#000000" stroke-width="2" stroke-linecap="round"/><path d="M281.62843,96.464l-0.78628,7.90978" fill="none" stroke="#000000" stroke-width="2" stroke-linecap="round"/><path d="M287.98758,66.51435c-0.38388,3.86173 -0.89086,8.36657 -0.89086,8.36657c0,0 -7.63627,5.87912 -12.12782,5.43263c-8.56779,-0.85169 -14.85929,-8.12213 -14.05243,-16.23899c0.80686,-8.11687 8.40652,-14.00645 16.97433,-13.15476c1.81404,0.18033 10.7328,9.19624 10.09678,15.59455z" fill="#ffffff" stroke="#000000" stroke-width="2" stroke-linecap="butt"/><path d="M287.0313,66.80224c-0.14008,1.40917 -0.98474,2.47887 -1.88663,2.38922c-0.90187,-0.08965 -1.51943,-1.3047 -1.37935,-2.71387c0.14008,-1.40917 0.98476,-2.47887 1.88663,-2.38922c0.90187,0.08965 1.51943,1.3047 1.37935,2.71387z" fill="#ffffff" stroke="#000000" stroke-width="2" stroke-linecap="butt"/><path d="M266.91137,58.72105c-0.99305,-0.11076 -1.92391,-0.8019 -2.76564,-1.33282c0,0 -0.21688,-0.13679 -0.08008,-0.35368c0.13679,-0.21688 0.35368,-0.08008 0.35368,-0.08008c0.13502,0.08517 0.27489,0.17786 0.41867,0.27305c0.00471,-0.04249 0.02289,-0.08899 0.0628,-0.13765c0.16264,-0.19822 0.36087,-0.0356 0.36087,-0.0356c0.27105,0.22271 0.53031,0.46065 0.77545,0.71161l0.00109,0.00112c0,0 0.08926,0.09153 0.07711,0.20835c0.24505,0.10837 0.49313,0.18909 0.74073,0.2235c-0.15198,-0.67267 0.12834,-1.33602 -0.88473,-1.42653c0,0 -0.25515,-0.02536 -0.22979,-0.28052c0.02536,-0.25515 0.28052,-0.22979 0.28052,-0.22979c1.87557,0.20207 0.88436,2.34432 3.24819,2.59043l0.20282,0.02016c0,0 0.25515,0.02536 0.22979,0.28052c-0.02536,0.25515 -0.28052,0.22979 -0.28052,0.22979l-0.20543,-0.02042c-0.48788,-0.05119 -1.59353,-0.13704 -1.96454,-0.47449c-0.05267,-0.0479 -0.09889,-0.09697 -0.13957,-0.14694z" fill="#ff2222" stroke="none" stroke-width="0.5" stroke-linecap="butt"/><path d="M268.23869,60.68065c0.16249,0.19836 -0.03587,0.36083 -0.03587,0.36083l-0.41227,0.24063c-2.37199,-0.23579 -2.44644,-0.80794 -3.84843,-2.51943c0,0 -0.16249,-0.19836 0.03587,-0.36083c0.19836,-0.16249 0.36083,0.03587 0.36083,0.03587c1.37243,1.67541 1.20851,2.10606 3.50244,2.33409l0.03656,-0.12704c0,0 0.19836,-0.16249 0.36083,0.03587z" fill="#ff2222" stroke="none" stroke-width="0.5" stroke-linecap="butt"/><path d="M265.05101,62.40136c-0.02547,0.25514 -0.28062,0.22966 -0.28062,0.22966l-0.42938,-0.04287c-0.7291,-0.0731 -1.36789,-0.17064 -2.06082,-0.41849c0,0 -0.24138,-0.08649 -0.1549,-0.32787c0.08649,-0.24138 0.32787,-0.1549 0.32787,-0.1549c0.65397,0.23473 1.2502,0.32193 1.93889,0.39099l0.42929,0.04286c0,0 0.25514,0.02547 0.22966,0.28062z" fill="#ff2222" stroke="none" stroke-width="0.5" stroke-linecap="butt"/><path d="M264.64351,63.7691c-0.18876,0.17352 -0.3623,-0.01524 -0.3623,-0.01524l-0.00298,-0.14077c-0.33309,0.01737 -0.66574,0.05049 -0.9957,0.09917c0,0 -0.25368,0.03728 -0.29096,-0.21641c-0.03728,-0.25368 0.21641,-0.29096 0.21641,-0.29096c0.34579,-0.05062 0.6943,-0.08533 1.04328,-0.10391l0.40752,0.30581c0,0 0.17352,0.18876 -0.01524,0.3623z" fill="#ff2222" stroke="none" stroke-width="0.5" stroke-linecap="butt"/><path d="M266.71185,66.16276c0.09027,0.24001 -0.14973,0.33026 -0.14973,0.33026l-0.02478,0.00931c-2.46028,0.92516 -2.62906,-1.31536 -4.87839,-1.0935c0,0 -0.25518,0.02517 -0.28033,-0.23001c-0.02517,-0.25518 0.23001,-0.28033 0.23001,-0.28033c2.30655,-0.2275 2.49565,1.97113 4.74821,1.12385l0.02478,-0.00931c0,0 0.24001,-0.09027 0.33026,0.14973z" fill="#ff2222" stroke="none" stroke-width="0.5" stroke-linecap="butt"/><path d="M264.97465,69.36955c0.00738,0.25631 -0.24891,0.26369 -0.24891,0.26369l-0.28739,0.00349c-0.57865,0.12739 -1.01768,0.07502 -1.60277,0.01686c0,0 -0.25515,-0.02536 -0.22979,-0.28052c0.02536,-0.25515 0.28052,-0.22979 0.28052,-0.22979c0.52986,0.05267 0.91823,0.11499 1.43878,-0.00672l0.38585,-0.01593c0,0 0.25631,-0.00738 0.26369,0.24891z" fill="#ff2222" stroke="none" stroke-width="0.5" stroke-linecap="butt"/><path d="M267.00094,73.13217c0.16249,0.19836 -0.03587,0.36083 -0.03587,0.36083l-0.35776,0.24024c-0.4984,0.0561 -0.96451,0.19164 -1.4613,0.26514c0,0 -0.25368,0.03728 -0.29096,-0.21641c-0.03728,-0.25368 0.21641,-0.29096 0.21641,-0.29096c0.50236,-0.0733 0.97306,-0.20872 1.47758,-0.26727l0.09106,-0.12743c0,0 0.19836,-0.16249 0.36083,0.03587z" fill="#ff2222" stroke="none" stroke-width="0.5" stroke-linecap="butt"/><path d="M267.11671,69.45166c-1.3523,-0.22806 -2.20005,-1.38652 -3.5154,-1.78833c0,0 -0.05045,-0.01542 -0.09859,-0.05513c-0.0146,0.14031 -0.13986,0.24257 -0.2804,0.2286c-0.14092,-0.01401 -0.2438,-0.1396 -0.22979,-0.28052c0.01401,-0.14092 0.1396,-0.2438 0.28052,-0.22979c0.05686,0.00565 0.10752,0.02947 0.14683,0.06513c0.0023,-0.01536 0.00595,-0.03149 0.01112,-0.04843c0.07492,-0.24523 0.32013,-0.17032 0.32013,-0.17032c0.42364,0.12941 0.80079,0.33572 1.16178,0.56422c-0.0222,-0.0262 -0.0411,-0.06065 -0.05413,-0.10575c-0.07122,-0.24632 0.17511,-0.31755 0.17511,-0.31755c1.88496,-0.54494 4.69242,0.63343 6.10204,-0.52535l0.3964,-0.07948c0,0 0.25542,-0.02233 0.27777,0.23311c0.02233,0.25542 -0.23311,0.27777 -0.23311,0.27777l-0.11609,-0.03467c-1.59958,1.3061 -4.24724,0.03229 -6.2846,0.62129c0,0 -0.07667,0.02217 -0.15682,-0.00101c0.72951,0.47341 1.4043,1.0166 2.28062,1.16729l0.43305,0.26728c0,0 0.00096,0.0006 0.00269,0.00178l0.09,-0.01977c0,0 0.25515,0.02536 0.22979,0.28052c-0.02536,0.25515 -0.28052,0.22979 -0.28052,0.22979l0.03811,-0.13866c-0.0005,0.00077 -0.00098,0.00154 -0.00146,0.0023c-0.58376,0.9189 -0.68658,1.90475 -1.91248,2.27643c-0.96008,0.29108 -1.30276,-0.50716 -2.33334,-0.11203c0,0 -0.23957,0.09142 -0.33099,-0.14814c-0.09142,-0.23957 0.14814,-0.33099 0.14814,-0.33099c0.97839,-0.37175 1.63282,0.37053 2.35563,0.1041c0.98176,-0.36188 1.09364,-1.07515 1.5131,-1.8462z" fill="#ff2222" stroke="none" stroke-width="0.5" stroke-linecap="butt"/><path d="M269.77964,71.50706c0.21427,0.14085 0.07343,0.35512 0.07343,0.35512l-0.03303,0.05026c-0.75209,1.14335 -1.39013,1.84155 -2.68514,1.02732c0,0 -0.21688,-0.13679 -0.08008,-0.35368c0.13679,-0.21688 0.35368,-0.08008 0.35368,-0.08008c1.01346,0.64146 1.37121,0.05625 1.98301,-0.87525l0.03303,-0.05026c0,0 0.14085,-0.21427 0.35512,-0.07343z" fill="#ff2222" stroke="none" stroke-width="0.5" stroke-linecap="butt"/><path d="M271.65491,77.52399c-0.02271,-0.01077 -0.04212,-0.02271 -0.05869,-0.03549c-0.00532,0.05346 -0.03136,0.11158 -0.09745,0.16573c-0.19836,0.16249 -0.36083,-0.03587 -0.36083,-0.03587l-0.24091,-0.40927c0.12869,-1.17586 -0.89188,-1.06868 -1.73025,-1.36803c0,0 -0.24138,-0.08649 -0.1549,-0.32787c0.08649,-0.24138 0.32787,-0.1549 0.32787,-0.1549c1.09765,0.39476 2.17582,0.38683 2.06814,1.89551l0.10002,0.03123c0.00441,-0.05869 0.02525,-0.10263 0.02525,-0.10263l0.03239,-0.06829c0.37909,-0.77774 0.21427,-1.77728 0.08046,-2.63946c-0.11544,0.15603 -0.22642,0.26426 -0.32887,0.30649c-0.50757,0.20918 -1.05699,-0.32785 -1.57446,-0.29814c-0.22664,0.01301 -0.40923,0.09786 -0.56561,0.223c0.02279,0.01473 0.04601,0.02944 0.06972,0.04412l0.09269,-0.01798c0,0 0.25515,0.02536 0.22979,0.28052c-0.02536,0.25515 -0.28052,0.22979 -0.28052,0.22979l-0.31554,-0.05856c-0.04551,-0.02913 -0.09116,-0.06551 -0.13683,-0.10741c-0.13881,0.18802 -0.26343,0.39383 -0.398,0.57477c0,0 -0.15302,0.20574 -0.35876,0.05271c-0.20574,-0.15302 -0.05271,-0.35876 -0.05271,-0.35876c0.19108,-0.25689 0.36312,-0.44853 0.52215,-0.5904c-0.28543,-0.36264 -0.56564,-0.80456 -0.82038,-0.90914c-0.17796,-0.07306 -0.9607,0.57913 -1.09209,0.6644c0,0 -0.21508,0.13958 -0.35467,-0.07549c-0.13958,-0.21508 0.07549,-0.35467 0.07549,-0.35467c1.53999,-0.99942 1.54145,-0.33379 2.53894,0.4285c0.70239,-0.36627 1.20012,0.18709 2.20993,-0.1947c0.39958,-0.15107 1.57431,-3.47413 1.69911,-3.91693l0.04757,-0.42137c0,0 0.02937,-0.25472 0.28409,-0.22537c0.25472,0.02937 0.22537,0.28409 0.22537,0.28409l-0.05468,0.46578c-0.15481,0.49836 -0.763,2.36165 -1.35002,3.46555c0.13745,0.04685 0.16106,0.20748 0.16106,0.20748c0.1512,1.03701 0.36101,2.18905 -0.08987,3.16104l-0.03239,0.06829c0,0 -0.10991,0.23165 -0.34158,0.12174z" fill="#ff2222" stroke="none" stroke-width="0.5" stroke-linecap="butt"/><path d="M273.10419,77.83281c0.02483,0.0244 0.04703,0.05754 0.06406,0.10221c0.09142,0.23957 -0.14814,0.33099 -0.14814,0.33099l-0.42372,0.1617c-0.03732,0.01514 -0.07874,0.02169 -0.1216,0.01743c-0.14092,-0.01401 -0.2438,-0.1396 -0.22979,-0.28052c0.01013,-0.10186 0.07856,-0.18384 0.16892,-0.21617l0.24172,-0.09224c-0.91256,-1.63356 1.94293,-4.40549 2.89368,-5.49095c0,0 0.16895,-0.19288 0.36183,-0.02394c0.19288,0.16895 0.02394,0.36183 0.02394,0.36183c-1.20313,1.37362 -3.10744,3.15883 -2.8309,5.12967z" fill="#ff2222" stroke="none" stroke-width="0.5" stroke-linecap="butt"/><path d="M274.79891,78.38894l-0.42649,-0.2153c1.06508,-1.82421 0.80677,-3.8716 2.39083,-5.49277c0,0 0.17919,-0.18339 0.36259,-0.00419c0.18339,0.17919 0.00419,0.36259 0.00419,0.36259c-1.43398,1.46757 -1.30101,3.35591 -2.13451,5.05578c0.11232,0.21957 -0.10699,0.33914 -0.10699,0.33914l-0.0576,-0.02908c-0.00513,0.00895 -0.0103,0.01788 -0.0155,0.02682z" fill="#ff2222" stroke="none" stroke-width="0.5" stroke-linecap="butt"/><path d="M276.40945,77.94383c-0.2051,0.1539 -0.35898,-0.05121 -0.35898,-0.05121l-0.33754,-0.53482c0.21,-0.33265 0.42798,-0.66088 0.66277,-0.97654c0,0 0.15302,-0.20574 0.35876,-0.05271c0.20574,0.15302 0.05271,0.35876 0.05271,0.35876c-0.17381,0.23367 -0.35652,0.46246 -0.56143,0.66942l0.23493,0.22813c0,0 0.1539,0.2051 -0.05121,0.35898z" fill="#ff2222" stroke="none" stroke-width="0.5" stroke-linecap="butt"/><path d="M277.574,77.07074c0.06633,-0.19569 0.12688,-0.37032 0.05538,-0.34113c-0.05435,0.1517 -0.1087,0.3034 -0.16307,0.45508l0.0255,0.04681c0.00504,-0.02889 0.02345,-0.10601 0.08218,-0.16077zM277.98015,77.49789l-0.24501,-0.12743l-0.16325,0.04719c0.00475,0.07669 -0.01294,0.21359 -0.18714,0.2615c-0.24722,0.06803 -0.31525,-0.17922 -0.31525,-0.17922l-0.08598,-0.48824c0.05178,-0.14452 0.10356,-0.28902 0.15535,-0.43354c0.00697,-0.06349 0.04022,-0.11025 0.07529,-0.14273c0.04084,-0.04595 0.10538,-0.08937 0.19986,-0.07836c0.93807,-0.14958 0.64837,0.31324 0.56611,1.14081zM277.51382,77.25535l-0.01256,-0.00653l0.00938,0.01721c0.00104,-0.00353 0.00212,-0.0071 0.00319,-0.01067z" fill="#ff2222" stroke="none" stroke-width="0.5" stroke-linecap="butt"/><path d="M279.63573,77.15927c-0.13679,0.21688 -0.35368,0.08008 -0.35368,0.08008l-0.48112,-0.34815c0.01255,-0.52646 -0.00901,-1.0046 -0.08582,-1.52531c0,0 -0.03728,-0.25368 0.21641,-0.29096c0.25368,-0.03728 0.29096,0.21641 0.29096,0.21641c0.06958,0.47519 0.13851,0.89973 0.03835,1.373l0.2948,0.14126c0,0 0.21688,0.13679 0.08008,0.35368z" fill="#ff2222" stroke="none" stroke-width="0.5" stroke-linecap="butt"/><path d="M280.9656,78.05233c-0.25515,-0.02536 -0.22979,-0.28052 -0.22979,-0.28052l0.02029,-0.20413c0.11829,-1.18994 -0.17693,-1.47082 -0.92446,-2.38337c0,0 -0.16249,-0.19836 0.03587,-0.36083c0.19836,-0.16249 0.36083,0.03587 0.36083,0.03587c0.81538,0.99538 1.16944,1.43729 1.03805,2.75908l-0.02029,0.20413c0,0 -0.02536,0.25515 -0.28052,0.22979z" fill="#ff2222" stroke="none" stroke-width="0.5" stroke-linecap="butt"/><path d="M283.64531,76.06283c0.12043,0.22636 -0.10594,0.3468 -0.10594,0.3468l-0.47227,0.20248c-1.4789,-0.14701 -1.74334,-0.60743 -1.59839,-2.06569c0,0 0.02536,-0.25515 0.28052,-0.22979c0.25515,0.02536 0.22979,0.28052 0.22979,0.28052c-0.11993,1.2065 -0.07593,1.3839 1.1388,1.50465l0.18068,-0.14491c0,0 0.22636,-0.12043 0.3468,0.10594z" fill="#ff2222" stroke="none" stroke-width="0.5" stroke-linecap="butt"/><path d="M284.61832,76.56017c-0.25515,-0.02536 -0.22979,-0.28052 -0.22979,-0.28052l0.03588,-0.08734c-0.32692,-0.89196 -0.25673,-1.60828 -1.29527,-2.06094c0,0 -0.23404,-0.10474 -0.12929,-0.3388c0.10474,-0.23404 0.3388,-0.12929 0.3388,-0.12929c1.19214,0.54522 1.15559,1.32653 1.56489,2.34617l-0.00471,0.3209c0,0 -0.02536,0.25515 -0.28052,0.22979z" fill="#ff2222" stroke="none" stroke-width="0.5" stroke-linecap="butt"/><path d="M286.98625,74.65946c0.21548,0.13901 0.07647,0.35447 0.07647,0.35447l-0.32781,0.33307c-0.85051,0.07833 -1.2355,-0.36914 -1.99508,-0.63771c0,0 -0.24138,-0.08649 -0.1549,-0.32787c0.08649,-0.24138 0.32787,-0.1549 0.32787,-0.1549c0.65301,0.23671 1.05905,0.70325 1.76663,0.61068l-0.04765,-0.10125c0,0 0.13901,-0.21548 0.35447,-0.07647z" fill="#ff2222" stroke="none" stroke-width="0.5" stroke-linecap="butt"/><path d="M287.79328,74.14733c0.06322,-0.03916 0.20021,-0.09524 0.32639,0.04558c0.17112,0.19095 -0.01983,0.36208 -0.01983,0.36208l-0.45988,0.12926c-0.56409,-0.4411 -0.96848,-0.99258 -1.42084,-1.54479c0,0 -0.16249,-0.19836 0.03587,-0.36083c0.19836,-0.16249 0.36083,0.03587 0.36083,0.03587c0.382,0.46632 0.72597,0.9425 1.17744,1.33286z" fill="#ff2222" stroke="none" stroke-width="0.5" stroke-linecap="butt"/><path d="M287.86731,72.45112c0.0224,-0.07297 0.08751,-0.19745 0.26941,-0.17937c0.25515,0.02536 0.22979,0.28052 0.22979,0.28052l-0.30081,0.43391c-0.13608,-0.01353 -0.27216,-0.02705 -0.40825,-0.04058c0,0 -0.25515,-0.02536 -0.22979,-0.28052c0.02536,-0.25515 0.28052,-0.22979 0.28052,-0.22979c0.05304,0.00527 0.1061,0.01055 0.15914,0.01582z" fill="#ff2222" stroke="none" stroke-width="0.5" stroke-linecap="butt"/><path d="M269.08907,57.67348c-0.23957,0.09142 -0.33099,-0.14814 -0.33099,-0.14814l-0.17036,-0.44895c-0.10075,-0.50088 -0.19914,-0.99759 -0.27352,-1.50318c0,0 -0.03728,-0.25368 0.21641,-0.29096c0.00787,-0.00115 0.01553,-0.00203 0.02298,-0.00264c-0.17059,-0.23456 -0.37426,-0.44482 -0.63341,-0.60829c0,0 -0.21688,-0.13679 -0.08008,-0.35368c0.13679,-0.21688 0.35368,-0.08008 0.35368,-0.08008c1.05372,0.66464 1.39881,2.6057 2.23287,3.02913c0.0342,-0.06834 0.10498,-0.14412 0.24964,-0.12974c0.25515,0.02536 0.22979,0.28052 0.22979,0.28052l-0.31283,0.43243c-0.99381,-0.15843 -1.25355,-1.15995 -1.72547,-2.05582c0.06307,0.38164 0.13772,0.75971 0.21272,1.14026l0.15672,0.40811c0,0 0.09142,0.23957 -0.14814,0.33099z" fill="#ff2222" stroke="none" stroke-width="0.5" stroke-linecap="butt"/><path d="M271.02895,55.86298c0.10029,0.236 -0.13571,0.33627 -0.13571,0.33627l-0.57832,0.04029c-0.41584,-0.54722 -0.4059,-0.888 -0.4719,-1.55702c0,0 -0.02517,-0.25518 0.23001,-0.28033c0.25518,-0.02517 0.28033,0.23001 0.28033,0.23001c0.05539,0.56152 0.00129,0.85081 0.36431,1.28991l-0.02502,-0.19484c0,0 0.236,-0.10029 0.33627,0.13571z" fill="#ff2222" stroke="none" stroke-width="0.5" stroke-linecap="butt"/><path d="M271.11458,55.62126c-0.25008,0.05662 -0.30672,-0.19346 -0.30672,-0.19346c-0.03774,-0.16672 -0.10551,-0.46595 -0.14326,-0.63266c0,0 -0.05662,-0.25008 0.19346,-0.30672c0.25008,-0.05662 0.30672,0.19346 0.30672,0.19346c0.03774,0.16672 0.07551,0.33345 0.11325,0.50017l0.03001,0.1325c0,0 0.05662,0.25008 -0.19346,0.30672z" fill="#ff2222" stroke="none" stroke-width="0.5" stroke-linecap="butt"/><path d="M266.81453,60.49122c-0.19836,0.16249 -0.36083,-0.03587 -0.36083,-0.03587c-0.21664,-0.26447 -0.70252,-0.85761 -0.91916,-1.12208c0,0 -0.16249,-0.19836 0.03587,-0.36083c0.19836,-0.16249 0.36083,0.03587 0.36083,0.03587c0.21664,0.26447 0.4333,0.52896 0.64995,0.79343l0.26921,0.32864c0,0 0.16249,0.19836 -0.03587,0.36083z" fill="#ff2222" stroke="none" stroke-width="0.5" stroke-linecap="butt"/><path d="M272.17885,54.91184c-0.2557,0.01911 -0.27482,-0.23657 -0.27482,-0.23657l-0.0052,-0.2343c-0.19157,-0.47253 -0.40736,-0.9285 -0.6251,-1.38945c0,0 -0.10952,-0.23184 0.12231,-0.34137c0.23184,-0.10952 0.34137,0.12231 0.34137,0.12231c0.22184,0.46959 0.44129,0.9344 0.63664,1.41574l0.04138,0.38884c0,0 0.01911,0.2557 -0.23657,0.27482z" fill="#ff2222" stroke="none" stroke-width="0.5" stroke-linecap="butt"/><path d="M273.62286,56.77208c-0.13679,0.21688 -0.35368,0.08008 -0.35368,0.08008l-0.31234,-0.36459c0.11836,-1.19072 0.23673,-2.38143 0.35509,-3.57216c0,0 0.02536,-0.25515 0.28052,-0.22979c0.25515,0.02536 0.22979,0.28052 0.22979,0.28052c-0.11836,1.19072 -0.23673,2.38143 -0.35509,3.57216l0.07562,-0.11989c0,0 0.21688,0.13679 0.08008,0.35368z" fill="#ff2222" stroke="none" stroke-width="0.5" stroke-linecap="butt"/><path d="M274.83012,53.91137c-0.23647,0.09916 -0.33562,-0.13731 -0.33562,-0.13731l-0.03391,-0.0809c-0.13821,-0.33307 -0.23635,-0.6856 -0.29009,-1.04218c0,0 -0.03728,-0.25368 0.21641,-0.29096c0.25368,-0.03728 0.29096,0.21641 0.29096,0.21641c0.04487,0.3146 0.13153,0.62588 0.25566,0.91842l0.03391,0.0809c0,0 0.09916,0.23647 -0.13731,0.33562z" fill="#ff2222" stroke="none" stroke-width="0.5" stroke-linecap="butt"/><path d="M275.81454,54.16542c0.07275,-0.02719 0.18203,-0.03683 0.27866,0.08111c0.16249,0.19836 -0.03587,0.36083 -0.03587,0.36083l-0.62646,0.07691c-0.21038,-0.57396 -0.13739,-0.96525 -0.07768,-1.56594c0,0 0.02536,-0.25515 0.28052,-0.22979c0.25515,0.02536 0.22979,0.28052 0.22979,0.28052c-0.0384,0.38629 -0.10204,0.6731 -0.04895,0.99636z" fill="#ff2222" stroke="none" stroke-width="0.5" stroke-linecap="butt"/><path d="M277.31526,54.32669c-0.20418,0.15509 -0.35929,-0.04909 -0.35929,-0.04909l-0.23683,-0.37455c-0.03355,-0.34024 -0.06712,-0.68046 -0.10068,-1.02069c0,0 -0.02517,-0.25518 0.23001,-0.28033c0.25518,-0.02517 0.28033,0.23001 0.28033,0.23001c0.03355,0.34024 0.06712,0.68046 0.10068,1.02069l0.13484,0.1147c0,0 0.15509,0.20418 -0.04909,0.35929z" fill="#ff2222" stroke="none" stroke-width="0.5" stroke-linecap="butt"/><path d="M279.39886,53.48226c0.02696,-0.00574 0.05775,-0.00757 0.09289,-0.00408c0.25515,0.02536 0.22979,0.28052 0.22979,0.28052l-0.48491,0.32664c-0.2131,-0.30934 -0.44359,-0.4785 -0.71959,-0.65196c-0.00336,0.03383 -0.00673,0.06768 -0.01009,0.10151l-0.01015,0.10207c0,0 -0.02536,0.25515 -0.28052,0.22979c-0.25515,-0.02536 -0.22979,-0.28052 -0.22979,-0.28052c0.01518,-0.15271 0.03854,-0.38771 0.05539,-0.55724c-0.00522,-0.04341 0.00249,-0.09341 0.03335,-0.14901c0.02018,-0.04276 0.05449,-0.08965 0.11224,-0.11619c0.05643,-0.02924 0.11451,-0.02749 0.16063,-0.01714c0.06272,0.00981 0.10684,0.03438 0.13787,0.06509c0.35929,0.2257 0.64772,0.39854 0.91286,0.67055z" fill="#ff2222" stroke="none" stroke-width="0.5" stroke-linecap="butt"/><path d="M280.313,52.99295c0.01401,-0.14092 0.1396,-0.2438 0.28052,-0.22979c0.14092,0.01401 0.2438,0.1396 0.22979,0.28052c-0.01401,0.14092 -0.1396,0.2438 -0.28052,0.22979c-0.14092,-0.01401 -0.2438,-0.1396 -0.22979,-0.28052z" fill="#ff2222" stroke="none" stroke-width="0.5" stroke-linecap="butt"/><path d="M281.681,53.74735c0.01401,-0.14092 0.1396,-0.2438 0.28052,-0.22979c0.14092,0.01401 0.2438,0.1396 0.22979,0.28052c-0.01401,0.14092 -0.1396,0.2438 -0.28052,0.22979c-0.14092,-0.01401 -0.2438,-0.1396 -0.22979,-0.28052z" fill="#ff2222" stroke="none" stroke-width="0.5" stroke-linecap="butt"/></g><path d="M312.36191,336.55639l-16.93219,-41.83154l31.06303,-12.57341l4.69407,11.59687c0,0 1.99231,-4.96652 20.22898,-8.31025c25.32861,-4.64404 22.49034,25.725 22.49034,25.725z" fill="#ffffff" stroke="#000000" stroke-width="2" stroke-linecap="butt"/><path d="M281.19001,95.97356c0,0 9.61824,14.53928 9.57939,13.74161c-0.01378,-0.28315 20.37933,16.1811 20.37933,16.1811c0,0 2.19065,11.00246 2.60714,11.20332c0.11769,0.05675 -10.19625,12.53895 -10.45271,12.45323c-0.09301,-0.03109 -14.64796,-2.86801 -14.64796,-2.86801c0,0 -18.57998,-15.14277 -18.59591,-15.15866c-0.03904,-0.03899 -11.36285,-14.76403 -11.36285,-14.76403c0,0 -6.711,-15.94135 -6.97027,-16.0682c-0.19839,-0.09707 8.34853,-11.56797 8.05442,-12.32844c-0.11572,-0.29922 21.40935,7.60807 21.40935,7.60807z" fill="#003cff" stroke="#000000" stroke-width="2" stroke-linecap="butt"/><path d="M214.74603,242.04357l-38.04439,3.0826l-36.86185,-13.91399l-17.92338,-9.78363l-5.00315,-12.0009l24.36998,-5.17717l19.81631,3.67516l9.13769,-1.1833l31.40905,4.33711" data-paper-data="{&quot;index&quot;:null}" fill="#003cff" stroke="#000000" stroke-width="2" stroke-linecap="round"/><path d="M101.21396,196.72412l44.76508,5.71532l-4.24405,33.24139l-12.41012,-1.58445c0,0 3.35524,4.16869 -2.65731,21.70741c-8.35074,24.3592 -33.44189,7.0165 -33.44189,7.0165z" fill="#ffffff" stroke="#000000" stroke-width="2" stroke-linecap="butt"/><g stroke="#000000" stroke-width="2"><path d="M294.91201,124.21069l16.42758,-12.08794l5.78422,-1.7483l9.97844,-8.30541l16.25723,-3.20077l5.9123,11.97738l-5.93743,17.90317l-19.96548,12.97696l-23.32441,8.61267" fill="#003cff" stroke-linecap="round"/><g><path d="M338.39188,131.67303l-16.20048,-22.78596c0,0 10.39978,-18.72378 10.15935,-18.54002c-0.03039,0.02324 15.65669,-9.23393 15.65669,-9.23393l5.76058,6.03073l-16.08845,11.44652l30.50065,-20.10438c0,0 6.06404,9.48362 8.06836,14.57503c1.79896,4.56977 2.63014,17.96047 2.63014,17.96047z" fill="#ffffff" stroke-linecap="butt"/><path d="M352.61867,100.79643l20.13409,-13.9614" fill="none" stroke-linecap="round"/><path d="M376.84396,100.54792l-18.58344,9.67603" fill="none" stroke-linecap="round"/><path d="M348.704,98.27493c0,0 4.95799,5.70772 6.78108,8.61458c1.69584,2.70398 3.80337,8.26204 3.80337,8.26204" fill="none" stroke-linecap="round"/></g></g></g></g></svg>